<?xml version="1.0" encoding="UTF-8" standalone="no"?>
<svg
   viewBox="0 0 200 200"
   version="1.1"
   id="svg30"
   sodipodi:docname="logo_Color_1.svg"
   width="200"
   height="200"
   inkscape:version="1.3 (0e150ed6c4, 2023-07-21)"
   inkscape:export-filename="logo_Color_1.png"
   inkscape:export-xdpi="96"
   inkscape:export-ydpi="96"
   xmlns:inkscape="http://www.inkscape.org/namespaces/inkscape"
   xmlns:sodipodi="http://sodipodi.sourceforge.net/DTD/sodipodi-0.dtd"
   xmlns="http://www.w3.org/2000/svg"
   xmlns:svg="http://www.w3.org/2000/svg">
  <sodipodi:namedview
     id="namedview30"
     pagecolor="#ffffff"
     bordercolor="#000000"
     borderopacity="0.25"
     inkscape:showpageshadow="2"
     inkscape:pageopacity="0.0"
     inkscape:pagecheckerboard="0"
     inkscape:deskcolor="#d1d1d1"
     inkscape:zoom="1.7669028"
     inkscape:cx="173.75036"
     inkscape:cy="74.424015"
     inkscape:window-width="1920"
     inkscape:window-height="1115"
     inkscape:window-x="0"
     inkscape:window-y="0"
     inkscape:window-maximized="1"
     inkscape:current-layer="g31" />
  <defs
     id="defs4">
    <style
       id="style1">.f{fill:url(#e);}.g{fill:url(#d);}.h{fill:none;}.i{font-size:14px;}.i,.j,.k{fill:#446aaf;}.i,.k{font-family:Congenial-Medium, Congenial;}.l{fill:#fff;}.k{font-size:20px;}.m{letter-spacing:.29em;}.n{letter-spacing:.29em;}.o{letter-spacing:.29em;}.p{letter-spacing:.28em;}.q{letter-spacing:.3em;}.r{letter-spacing:.3em;}.s{letter-spacing:.28em;}.t{letter-spacing:.28em;}.u{letter-spacing:.26em;}.v{letter-spacing:.27em;}</style>
    <linearGradient
       id="d"
       x1="34.48"
       y1="78.019997"
       x2="121.2"
       y2="59.139999"
       gradientUnits="userSpaceOnUse">
      <stop
         offset="0"
         stop-color="#ffde4f"
         id="stop1" />
      <stop
         offset="1"
         stop-color="#fcb833"
         id="stop2" />
    </linearGradient>
    <linearGradient
       id="e"
       x1="33.990002"
       y1="75.660004"
       x2="120.71"
       y2="56.779999"
       gradientUnits="userSpaceOnUse">
      <stop
         offset="0"
         stop-color="#ffde4f"
         id="stop3" />
      <stop
         offset="1"
         stop-color="#fcb833"
         id="stop4" />
    </linearGradient>
  </defs>
  <g
     id="a" />
  <g
     id="g31"
     transform="translate(-2.4560961,133.84085)">
    <g
       id="b"
       transform="matrix(1.6885782,0,0,1.6885782,-26.778652,91.784231)">
      <g
         id="c"
         transform="translate(-14.518254,-133.52284)">
        <path
           class="h"
           d="m 54.59,128.34 h 11.79 c 0.83,0 1.16,-0.33 1.16,-1.08 l -1.3,-3.79 c -3.37,-1.66 -6.54,-3.64 -9.49,-5.91 l -3.32,9.7 c 0,0.75 0.33,1.08 1.16,1.08 z"
           id="path10" />
        <g
           id="g12"
           inkscape:export-filename="g12.svg"
           inkscape:export-xdpi="96"
           inkscape:export-ydpi="96">
          <path
             class="g"
             d="m 65.84,33.45 c 8.86,7.63 26.13,22.49 25.43,39.15 1.12,0.62 3.89,-5.96 10.29,-9.23 0.89,-0.46 7.92,-3.47 14,-0.46 3.65,1.81 5.17,4.13 5.57,6.29 2.95,0.09 5.21,2.33 5.47,2.77 -2.29,0.47 -12.83,1.11 -15.9,16.17 v 0 c -0.76,3.45 -1.79,8.11 -3.89,12.38 -0.85,1.72 -2.73,5.41 -6.26,8.56 1.66,-1.24 6.14,-4.98 12.7,-4.98 4.81,0 7.8,2.16 10.13,5.64 3.49,-3.24 9.88,-5.64 14.78,-5.64 0.08,0 0.17,0 0.25,0 6.04,-9.01 9.56,-19.85 9.56,-31.51 0,-31.31 -25.38,-56.69 -56.69,-56.69 -12.52,0 -24.08,4.07 -33.46,10.94 1.1,0.97 2.25,1.89 3.53,2.91 1.34,1.07 2.81,2.24 4.5,3.69 z m 75.87,25.57 c 0,0 1.18,12.55 -12.63,12.64 -0.09,-13.64 12.63,-12.64 12.63,-12.64 z m -2.53,25.28 c 0,0 -10.18,0.79 -10.11,-10.12 11.05,0.07 10.11,10.12 10.11,10.12 z"
             id="path11"
             style="fill:url(#d)" />
          <path
             class="f"
             d="M 64.91,83.91 C 63.1,84.47 48.26,76.96 38.55,63.94 c -0.91,-1.22 -1.77,-2.49 -2.57,-3.8 -0.9,4.01 -1.39,8.18 -1.39,12.46 0,3.15 0.27,6.24 0.76,9.25 0.7,0.23 1.41,0.46 2.13,0.68 9.13,2.75 19.03,3.99 27.44,1.38 z"
             id="path12"
             style="fill:url(#e)" />
        </g>
        <g
           id="g18">
          <path
             class="l"
             d="M 9.31,67.71 C 8.42,66.61 2,74.06 0.32,84.17 c -1.96,12.18 5.41,24.4 15.67,27.71 0,0 13.7,-9.46 27.54,-8.72 C 39.46,96.81 36.61,89.6 35.34,81.85 22.59,77.63 11.75,70.73 9.3,67.71 Z"
             id="path14" />
          <path
             class="l"
             d="M 57.81,26.85 C 55.94,25.2 54.23,23.42 52.36,20.76 46.44,12.37 44.97,4.29 44.42,0.01 c -1.78,1.88 -18.54,20.2 -13.83,46.3 0.87,5.04 2.83,9.67 5.38,13.84 3.05,-13.59 10.97,-25.33 21.84,-33.3 z"
             id="path15" />
          <path
             class="l"
             d="m 121.13,69.2 c -0.41,-2.16 -1.93,-4.48 -5.57,-6.29 -6.08,-3.01 -13.1,0 -14,0.46 -6.4,3.27 -9.17,9.85 -10.29,9.23 C 91.97,55.94 74.7,41.08 65.84,33.45 64.15,31.99 62.68,30.82 61.34,29.76 60.06,28.74 58.9,27.82 57.81,26.85 46.94,34.81 39.02,46.56 35.97,60.15 c 0.8,1.31 1.66,2.58 2.57,3.8 9.71,13.02 24.56,20.53 26.36,19.97 -8.4,2.6 -18.31,1.37 -27.44,-1.38 -0.72,-0.22 -1.42,-0.45 -2.13,-0.68 1.27,7.75 4.11,14.96 8.19,21.31 0.08,0 0.15,0 0.23,0 0.37,0.02 0.75,0.05 1.12,0.09 1.6,0.07 3.16,0.28 4.71,0.55 l 3.68,-9.75 c 0.75,-2.08 2.49,-2.66 7.22,-2.66 4.73,0 6.47,0.58 7.22,2.66 l 7.08,18.68 c 0.31,0.09 0.62,0.18 0.93,0.26 4.05,1.08 8.3,1.71 12.5,1.33 0.04,0 0.08,0 0.11,0 0.02,0 0.03,0 0.05,0 3.55,-0.35 6.02,-1.33 7.56,-2.09 1.79,-0.89 3.31,-1.98 4.61,-3.15 3.52,-3.15 5.41,-6.84 6.26,-8.56 2.1,-4.27 3.13,-8.93 3.89,-12.38 v 0 c 3.08,-15.06 13.61,-15.7 15.9,-16.17 -0.26,-0.44 -2.52,-2.68 -5.47,-2.77 z"
             id="path16" />
          <path
             class="l"
             d="m 141.71,59.03 c 0,0 -12.73,-0.99 -12.63,12.64 13.81,-0.09 12.63,-12.64 12.63,-12.64 z"
             id="path17" />
          <path
             class="l"
             d="m 139.18,84.31 c 0,0 0.94,-10.04 -10.11,-10.12 -0.07,10.91 10.11,10.12 10.11,10.12 z"
             id="path18" />
        </g>
      </g>
    </g>
  </g>
</svg>
