<?xml version="1.0" encoding="UTF-8" standalone="no"?>
<svg
   viewBox="0 0 388.25 180.9"
   version="1.1"
   id="svg30"
   sodipodi:docname="Logo_Color_1.svg"
   inkscape:version="1.3 (0e150ed6c4, 2023-07-21)"
   xmlns:inkscape="http://www.inkscape.org/namespaces/inkscape"
   xmlns:sodipodi="http://sodipodi.sourceforge.net/DTD/sodipodi-0.dtd"
   xmlns="http://www.w3.org/2000/svg"
   xmlns:svg="http://www.w3.org/2000/svg">
  <sodipodi:namedview
     id="namedview30"
     pagecolor="#ffffff"
     bordercolor="#000000"
     borderopacity="0.25"
     inkscape:showpageshadow="2"
     inkscape:pageopacity="0.0"
     inkscape:pagecheckerboard="0"
     inkscape:deskcolor="#d1d1d1"
     inkscape:zoom="2.2768835"
     inkscape:cx="155.91488"
     inkscape:cy="90.254949"
     inkscape:window-width="1920"
     inkscape:window-height="1115"
     inkscape:window-x="0"
     inkscape:window-y="0"
     inkscape:window-maximized="1"
     inkscape:current-layer="c" />
  <defs
     id="defs4">
    <style
       id="style1">.f{fill:url(#e);}.g{fill:url(#d);}.h{fill:none;}.i{font-size:14px;}.i,.j,.k{fill:#446aaf;}.i,.k{font-family:Congenial-Medium, Congenial;}.l{fill:#fff;}.k{font-size:20px;}.m{letter-spacing:.29em;}.n{letter-spacing:.29em;}.o{letter-spacing:.29em;}.p{letter-spacing:.28em;}.q{letter-spacing:.3em;}.r{letter-spacing:.3em;}.s{letter-spacing:.28em;}.t{letter-spacing:.28em;}.u{letter-spacing:.26em;}.v{letter-spacing:.27em;}</style>
    <linearGradient
       id="d"
       x1="34.48"
       y1="78.02"
       x2="121.2"
       y2="59.14"
       gradientUnits="userSpaceOnUse">
      <stop
         offset="0"
         stop-color="#ffde4f"
         id="stop1" />
      <stop
         offset="1"
         stop-color="#fcb833"
         id="stop2" />
    </linearGradient>
    <linearGradient
       id="e"
       x1="33.99"
       y1="75.66"
       x2="120.71"
       y2="56.78"
       gradientUnits="userSpaceOnUse">
      <stop
         offset="0"
         stop-color="#ffde4f"
         id="stop3" />
      <stop
         offset="1"
         stop-color="#fcb833"
         id="stop4" />
    </linearGradient>
  </defs>
  <g
     id="a" />
  <g
     id="b">
    <g
       id="c">
      <g
         id="g18">
        <path
           class="l"
           d="M 9.31,67.71 C 8.42,66.61 2,74.06 0.32,84.17 c -1.96,12.18 5.41,24.4 15.67,27.71 0,0 13.7,-9.46 27.54,-8.72 C 39.46,96.81 36.61,89.6 35.34,81.85 22.59,77.63 11.75,70.73 9.3,67.71 Z"
           id="path14" />
        <path
           class="l"
           d="M 57.81,26.85 C 55.94,25.2 54.23,23.42 52.36,20.76 46.44,12.37 44.97,4.29 44.42,0.01 c -1.78,1.88 -18.54,20.2 -13.83,46.3 0.87,5.04 2.83,9.67 5.38,13.84 3.05,-13.59 10.97,-25.33 21.84,-33.3 z"
           id="path15" />
        <path
           class="l"
           d="m 121.13,69.2 c -0.41,-2.16 -1.93,-4.48 -5.57,-6.29 -6.08,-3.01 -13.1,0 -14,0.46 -6.4,3.27 -9.17,9.85 -10.29,9.23 C 91.97,55.94 74.7,41.08 65.84,33.45 64.15,31.99 62.68,30.82 61.34,29.76 60.06,28.74 58.9,27.82 57.81,26.85 46.94,34.81 39.02,46.56 35.97,60.15 c 0.8,1.31 1.66,2.58 2.57,3.8 9.71,13.02 24.56,20.53 26.36,19.97 -8.4,2.6 -18.31,1.37 -27.44,-1.38 -0.72,-0.22 -1.42,-0.45 -2.13,-0.68 1.27,7.75 4.11,14.96 8.19,21.31 0.08,0 0.15,0 0.23,0 0.37,0.02 0.75,0.05 1.12,0.09 1.6,0.07 3.16,0.28 4.71,0.55 l 3.68,-9.75 c 0.75,-2.08 2.49,-2.66 7.22,-2.66 4.73,0 6.47,0.58 7.22,2.66 l 7.08,18.68 c 0.31,0.09 0.62,0.18 0.93,0.26 4.05,1.08 8.3,1.71 12.5,1.33 0.04,0 0.08,0 0.11,0 0.02,0 0.03,0 0.05,0 3.55,-0.35 6.02,-1.33 7.56,-2.09 1.79,-0.89 3.31,-1.98 4.61,-3.15 3.52,-3.15 5.41,-6.84 6.26,-8.56 2.1,-4.27 3.13,-8.93 3.89,-12.38 v 0 c 3.08,-15.06 13.61,-15.7 15.9,-16.17 -0.26,-0.44 -2.52,-2.68 -5.47,-2.77 z"
           id="path16" />
        <path
           class="l"
           d="m 141.71,59.03 c 0,0 -12.73,-0.99 -12.63,12.64 13.81,-0.09 12.63,-12.64 12.63,-12.64 z"
           id="path17" />
        <path
           class="l"
           d="m 139.18,84.31 c 0,0 0.94,-10.04 -10.11,-10.12 -0.07,10.91 10.11,10.12 10.11,10.12 z"
           id="path18" />
      </g>
      <g
         id="g30"
         transform="translate(-16.96,8.4549969)">
        <path
           class="j"
           d="m 183.91,143.86 c -3.07,2.16 -7.14,4.23 -12.7,4.23 -7.97,0 -13.86,-4.4 -13.86,-12.2 0,-9.63 6.56,-13.03 18.59,-15.85 3.98,-0.91 5.98,-1.66 5.98,-2.91 0,-2.41 -2.16,-4.07 -6.81,-4.07 -6.47,0 -11.62,3.82 -12.95,3.82 -0.75,0 -1.08,-0.41 -1.08,-1.25 0,-1.33 0.58,-4.15 1.74,-6.89 0.83,-1.83 6.81,-4.65 14.03,-4.65 12.7,0 17.51,5.56 17.51,16.68 v 15.11 c 0,2.57 1.25,3.57 3.24,3.57 h 1.66 c 0.83,0 1.16,0.42 1.16,1.08 0,1.99 -4.57,7.55 -8.55,7.55 -4.9,0 -7.97,-4.23 -7.97,-4.23 z m -8.05,-4.15 c 3.65,0 6.23,-2.24 6.23,-3.82 v -8.88 c 0,-0.5 -0.25,-0.91 -0.91,-0.91 -1.08,0 -2.74,0.41 -4.57,1.25 -3.49,1.25 -7.3,3.15 -7.3,6.97 0,3.57 2.74,5.4 6.56,5.4 z"
           id="path4" />
        <path
           class="j"
           d="m 228.02,138.22 v -18.93 c 0,-3.98 -2.08,-5.81 -5.73,-5.81 -3.9,0 -8.3,3.9 -8.3,5.81 v 25.98 c 0,1 -1.08,1.99 -6.14,1.99 -5.06,0 -6.14,-1 -6.14,-1.99 v -29.05 c 0,-3.57 -2.32,-4.81 -2.32,-6.14 0,-1.91 6.89,-5.98 9.46,-5.98 2.16,0 3.07,1.49 4.32,3.98 l 0.5,1 c 2.74,-2.16 8.3,-4.98 14.11,-4.98 7.22,0 12.53,4.32 12.53,11.29 v 20.5 c 0,2.57 1.25,3.57 3.15,3.57 h 1.74 c 0.91,0 1.16,0.42 1.16,1.08 0,1.91 -4.65,7.55 -8.63,7.55 -6.14,0 -9.71,-3.74 -9.71,-9.88 z"
           id="path5" />
        <path
           class="j"
           d="m 244.12,127.18 c 0,-16.35 10.71,-23.08 21.33,-23.08 11.29,0 16.85,5.31 16.85,12.2 0,11.12 -14.44,15.61 -24.32,15.85 1.83,5.06 6.47,6.64 11.21,6.64 6.39,0 9.96,-3.74 11.29,-3.74 0.58,0 1.16,0.33 1.16,1.16 0,1.33 -0.58,4.32 -1.58,6.81 -0.66,1.74 -5.89,5.06 -13.11,5.06 -13.12,0 -22.83,-6.81 -22.83,-20.92 z m 13.11,-1.33 c 6.64,-0.66 12.7,-4.23 12.7,-10.29 0,-2.32 -1.83,-3.98 -4.07,-3.98 -4.15,0 -8.3,3.82 -8.63,14.28 z"
           id="path6" />
        <path
           class="j"
           d="m 281.91,127.09 c 0,-15.52 10.62,-22.99 22.99,-22.99 8.3,0 12.53,2.9 12.53,4.65 0,1.91 -3.57,7.14 -5.23,7.14 -1.16,0 -3.4,-2.66 -8.05,-2.66 -3.98,0 -8.96,2.99 -8.96,12.87 0,8.88 4.98,12.7 11.54,12.7 6.56,0 9.96,-3.49 11.37,-3.49 0.5,0 1.08,0.33 1.08,1.16 0,1.58 -0.58,4.4 -1.74,6.81 -0.91,1.83 -6.31,4.81 -12.95,4.81 -11.87,0 -22.58,-6.23 -22.58,-21 z"
           id="path7" />
        <path
           class="j"
           d="m 319.22,127.18 c 0,-16.35 10.71,-23.08 21.33,-23.08 11.29,0 16.85,5.31 16.85,12.2 0,11.12 -14.44,15.61 -24.32,15.85 1.83,5.06 6.47,6.64 11.21,6.64 6.39,0 9.96,-3.74 11.29,-3.74 0.58,0 1.16,0.33 1.16,1.16 0,1.33 -0.58,4.32 -1.58,6.81 -0.66,1.74 -5.89,5.06 -13.11,5.06 -13.12,0 -22.83,-6.81 -22.83,-20.92 z m 13.11,-1.33 c 6.64,-0.66 12.7,-4.23 12.7,-10.29 0,-2.32 -1.83,-3.98 -4.07,-3.98 -4.15,0 -8.3,3.82 -8.63,14.28 z"
           id="path8" />
        <path
           class="j"
           d="m 359.45,145.27 v -29.05 c 0,-3.57 -2.32,-4.81 -2.32,-6.14 0,-1.91 6.89,-5.98 9.46,-5.98 2.57,0 3.32,1.83 4.81,4.98 0,0 4.07,-4.98 9.46,-4.98 3.49,0 7.39,1.49 7.39,3.15 0,1.41 -3.32,6.31 -5.15,8.13 -0.58,0.58 -0.91,0.83 -1.49,0.83 -1.25,0 -2.49,-2.07 -4.98,-2.07 -2.49,0 -4.9,2.49 -4.9,5.06 v 26.06 c 0,1 -1.08,1.99 -6.14,1.99 -5.06,0 -6.14,-1 -6.14,-1.99 z"
           id="path9" />
        <path
           class="h"
           d="m 54.59,128.34 h 11.79 c 0.83,0 1.16,-0.33 1.16,-1.08 l -1.3,-3.79 c -3.37,-1.66 -6.54,-3.64 -9.49,-5.91 l -3.32,9.7 c 0,0.75 0.33,1.08 1.16,1.08 z"
           id="path10" />
        <g
           id="g12">
          <path
             class="g"
             d="m 65.84,33.45 c 8.86,7.63 26.13,22.49 25.43,39.15 1.12,0.62 3.89,-5.96 10.29,-9.23 0.89,-0.46 7.92,-3.47 14,-0.46 3.65,1.81 5.17,4.13 5.57,6.29 2.95,0.09 5.21,2.33 5.47,2.77 -2.29,0.47 -12.83,1.11 -15.9,16.17 v 0 c -0.76,3.45 -1.79,8.11 -3.89,12.38 -0.85,1.72 -2.73,5.41 -6.26,8.56 1.66,-1.24 6.14,-4.98 12.7,-4.98 4.81,0 7.8,2.16 10.13,5.64 3.49,-3.24 9.88,-5.64 14.78,-5.64 0.08,0 0.17,0 0.25,0 6.04,-9.01 9.56,-19.85 9.56,-31.51 0,-31.31 -25.38,-56.69 -56.69,-56.69 -12.52,0 -24.08,4.07 -33.46,10.94 1.1,0.97 2.25,1.89 3.53,2.91 1.34,1.07 2.81,2.24 4.5,3.69 z m 75.87,25.57 c 0,0 1.18,12.55 -12.63,12.64 -0.09,-13.64 12.63,-12.64 12.63,-12.64 z m -2.53,25.28 c 0,0 -10.18,0.79 -10.11,-10.12 11.05,0.07 10.11,10.12 10.11,10.12 z"
             id="path11"
             style="fill:url(#d)" />
          <path
             class="f"
             d="M 64.91,83.91 C 63.1,84.47 48.26,76.96 38.55,63.94 c -0.91,-1.22 -1.77,-2.49 -2.57,-3.8 -0.9,4.01 -1.39,8.18 -1.39,12.46 0,3.15 0.27,6.24 0.76,9.25 0.7,0.23 1.41,0.46 2.13,0.68 9.13,2.75 19.03,3.99 27.44,1.38 z"
             id="path12"
             style="fill:url(#e)" />
        </g>
        <path
           class="j"
           d="m 155.58,139.46 h -1.74 c -1.91,0 -3.15,-1 -3.15,-3.57 v -21.33 c 0,-6.64 -5.91,-10.35 -12.28,-10.45 -0.08,0 -0.17,0 -0.25,0 -4.9,0 -11.29,2.41 -14.78,5.64 -2.32,-3.49 -5.31,-5.64 -10.13,-5.64 -6.56,0 -11.04,3.74 -12.7,4.98 -1.3,1.17 -2.83,2.26 -4.61,3.15 -1.54,0.76 -4,1.74 -7.56,2.09 -0.02,0 -0.03,0 -0.05,0 0.16,0.56 0.27,1.17 0.27,1.9 v 29.05 c 0,1 1.16,1.99 6.14,1.99 4.98,0 6.14,-1 6.14,-1.99 V 118.8 c 0,-2.41 3.74,-5.31 7.22,-5.31 2.91,0 5.4,1.66 5.4,5.23 v 26.56 c 0,1 1.16,1.99 6.14,1.99 4.98,0 6.14,-1 6.14,-1.99 v -26.56 c 0,-0.52 0.3,-1.14 0.8,-1.78 0.62,-0.78 1.55,-1.58 2.62,-2.21 1.25,-0.73 2.69,-1.25 4.05,-1.25 3.15,0 5.15,1.74 5.15,5.06 v 19.67 c 0,6.14 3.57,9.88 9.71,9.88 4.07,0 8.63,-5.64 8.63,-7.55 0,-0.66 -0.25,-1.08 -1.16,-1.08 z"
           id="path13" />
        <path
           class="j"
           d="M 86.55,143.78 80.68,128.29 74.78,112.73 67.7,94.05 c -0.75,-2.08 -2.49,-2.66 -7.22,-2.66 -4.73,0 -6.47,0.58 -7.22,2.66 l -3.68,9.75 -1.9,5.04 -13.18,34.93 c -0.33,1 -0.58,1.49 -0.58,2.16 0,0.91 1.41,1.33 6.39,1.33 4.65,0 6.31,-0.42 6.81,-1.66 l 2.49,-6.64 c 0.33,-0.83 0.66,-1.08 1.49,-1.08 h 18.76 c 0.83,0 1.16,0.25 1.49,1.08 l 2.49,6.64 c 0.5,1.24 2.16,1.66 6.81,1.66 4.98,0 6.47,-0.42 6.47,-1.33 0,-0.66 -0.25,-1.16 -0.58,-2.16 z M 66.38,128.34 H 54.59 c -0.83,0 -1.16,-0.33 -1.16,-1.08 l 3.32,-9.7 2.74,-7.98 c 0.17,-0.5 0.42,-1.16 1,-1.16 0.58,0 0.83,0.66 1,1.16 l 4.76,13.89 1.3,3.79 c 0,0.75 -0.33,1.08 -1.16,1.08 z"
           id="path19" />
        <text
           class="i"
           id="text23"
           x="158.21001"
           y="91.400002"><tspan
             class="m"
             x="158.21001"
             y="91.400002"
             id="tspan19">Comunid</tspan><tspan
             class="v"
             x="246.98"
             y="91.400002"
             id="tspan20">a</tspan><tspan
             class="o"
             x="258.73999"
             y="91.400002"
             id="tspan21">d Cristi</tspan><tspan
             class="t"
             x="338.32999"
             y="91.400002"
             id="tspan22">a</tspan><tspan
             class="o"
             x="350.23001"
             y="91.400002"
             id="tspan23">na</tspan></text>
      </g>
    </g>
  </g>
</svg>
