<?xml version="1.0" encoding="UTF-8" standalone="no"?>
<svg
   viewBox="0 0 388.25 180.9"
   version="1.1"
   id="svg30"
   sodipodi:docname="Logo_Color_1.1.svg"
   inkscape:version="1.3 (0e150ed6c4, 2023-07-21)"
   xmlns:inkscape="http://www.inkscape.org/namespaces/inkscape"
   xmlns:sodipodi="http://sodipodi.sourceforge.net/DTD/sodipodi-0.dtd"
   xmlns="http://www.w3.org/2000/svg"
   xmlns:svg="http://www.w3.org/2000/svg">
  <sodipodi:namedview
     id="namedview30"
     pagecolor="#ffffff"
     bordercolor="#000000"
     borderopacity="0.25"
     inkscape:showpageshadow="2"
     inkscape:pageopacity="0.0"
     inkscape:pagecheckerboard="0"
     inkscape:deskcolor="#d1d1d1"
     showguides="false"
     inkscape:zoom="2.2768835"
     inkscape:cx="189.95263"
     inkscape:cy="92.89013"
     inkscape:window-width="1920"
     inkscape:window-height="1115"
     inkscape:window-x="0"
     inkscape:window-y="0"
     inkscape:window-maximized="1"
     inkscape:current-layer="g30" />
  <defs
     id="defs4">
    <style
       id="style1">.f{fill:url(#e);}.g{fill:url(#d);}.h{fill:none;}.i{font-size:14px;}.i,.j,.k{fill:#446aaf;}.i,.k{font-family:Congenial-Medium, Congenial;}.l{fill:#fff;}.k{font-size:20px;}.m{letter-spacing:.29em;}.n{letter-spacing:.29em;}.o{letter-spacing:.29em;}.p{letter-spacing:.28em;}.q{letter-spacing:.3em;}.r{letter-spacing:.3em;}.s{letter-spacing:.28em;}.t{letter-spacing:.28em;}.u{letter-spacing:.26em;}.v{letter-spacing:.27em;}</style>
    <linearGradient
       id="d"
       x1="34.48"
       y1="78.02"
       x2="121.2"
       y2="59.14"
       gradientUnits="userSpaceOnUse"
       gradientTransform="matrix(1, 0, 0, 1, 0, 0)">
      <stop
         offset="0"
         stop-color="#ffde4f"
         id="stop1" />
      <stop
         offset="1"
         stop-color="#fcb833"
         id="stop2" />
    </linearGradient>
    <linearGradient
       id="e"
       x1="33.99"
       y1="75.66"
       x2="120.71"
       y2="56.78"
       gradientUnits="userSpaceOnUse"
       gradientTransform="matrix(1, 0, 0, 1, 0, 0)">
      <stop
         offset="0"
         stop-color="#ffde4f"
         id="stop3" />
      <stop
         offset="1"
         stop-color="#fcb833"
         id="stop4" />
    </linearGradient>
  </defs>
  <g
     id="a" />
  <g
     id="b">
    <g
       id="c">
      <g
         id="g30">
        <path
           class="j"
           d="M183.91,143.86c-3.07,2.16-7.14,4.23-12.7,4.23-7.97,0-13.86-4.4-13.86-12.2,0-9.63,6.56-13.03,18.59-15.85,3.98-.91,5.98-1.66,5.98-2.91,0-2.41-2.16-4.07-6.81-4.07-6.47,0-11.62,3.82-12.95,3.82-.75,0-1.08-.41-1.08-1.25,0-1.33,.58-4.15,1.74-6.89,.83-1.83,6.81-4.65,14.03-4.65,12.7,0,17.51,5.56,17.51,16.68v15.11c0,2.57,1.25,3.57,3.24,3.57h1.66c.83,0,1.16,.42,1.16,1.08,0,1.99-4.57,7.55-8.55,7.55-4.9,0-7.97-4.23-7.97-4.23Zm-8.05-4.15c3.65,0,6.23-2.24,6.23-3.82v-8.88c0-.5-.25-.91-.91-.91-1.08,0-2.74,.41-4.57,1.25-3.49,1.25-7.3,3.15-7.3,6.97,0,3.57,2.74,5.4,6.56,5.4Z"
           id="path4" />
        <path
           class="j"
           d="M228.02,138.22v-18.93c0-3.98-2.08-5.81-5.73-5.81-3.9,0-8.3,3.9-8.3,5.81v25.98c0,1-1.08,1.99-6.14,1.99s-6.14-1-6.14-1.99v-29.05c0-3.57-2.32-4.81-2.32-6.14,0-1.91,6.89-5.98,9.46-5.98,2.16,0,3.07,1.49,4.32,3.98l.5,1c2.74-2.16,8.3-4.98,14.11-4.98,7.22,0,12.53,4.32,12.53,11.29v20.5c0,2.57,1.25,3.57,3.15,3.57h1.74c.91,0,1.16,.42,1.16,1.08,0,1.91-4.65,7.55-8.63,7.55-6.14,0-9.71-3.74-9.71-9.88Z"
           id="path5" />
        <path
           class="j"
           d="M244.12,127.18c0-16.35,10.71-23.08,21.33-23.08,11.29,0,16.85,5.31,16.85,12.2,0,11.12-14.44,15.61-24.32,15.85,1.83,5.06,6.47,6.64,11.21,6.64,6.39,0,9.96-3.74,11.29-3.74,.58,0,1.16,.33,1.16,1.16,0,1.33-.58,4.32-1.58,6.81-.66,1.74-5.89,5.06-13.11,5.06-13.12,0-22.83-6.81-22.83-20.92Zm13.11-1.33c6.64-.66,12.7-4.23,12.7-10.29,0-2.32-1.83-3.98-4.07-3.98-4.15,0-8.3,3.82-8.63,14.28Z"
           id="path6" />
        <path
           class="j"
           d="M281.91,127.09c0-15.52,10.62-22.99,22.99-22.99,8.3,0,12.53,2.9,12.53,4.65,0,1.91-3.57,7.14-5.23,7.14-1.16,0-3.4-2.66-8.05-2.66-3.98,0-8.96,2.99-8.96,12.87,0,8.88,4.98,12.7,11.54,12.7s9.96-3.49,11.37-3.49c.5,0,1.08,.33,1.08,1.16,0,1.58-.58,4.4-1.74,6.81-.91,1.83-6.31,4.81-12.95,4.81-11.87,0-22.58-6.23-22.58-21Z"
           id="path7" />
        <path
           class="j"
           d="M319.22,127.18c0-16.35,10.71-23.08,21.33-23.08,11.29,0,16.85,5.31,16.85,12.2,0,11.12-14.44,15.61-24.32,15.85,1.83,5.06,6.47,6.64,11.21,6.64,6.39,0,9.96-3.74,11.29-3.74,.58,0,1.16,.33,1.16,1.16,0,1.33-.58,4.32-1.58,6.81-.66,1.74-5.89,5.06-13.11,5.06-13.12,0-22.83-6.81-22.83-20.92Zm13.11-1.33c6.64-.66,12.7-4.23,12.7-10.29,0-2.32-1.83-3.98-4.07-3.98-4.15,0-8.3,3.82-8.63,14.28Z"
           id="path8" />
        <path
           class="j"
           d="M359.45,145.27v-29.05c0-3.57-2.32-4.81-2.32-6.14,0-1.91,6.89-5.98,9.46-5.98s3.32,1.83,4.81,4.98c0,0,4.07-4.98,9.46-4.98,3.49,0,7.39,1.49,7.39,3.15,0,1.41-3.32,6.31-5.15,8.13-.58,.58-.91,.83-1.49,.83-1.25,0-2.49-2.07-4.98-2.07s-4.9,2.49-4.9,5.06v26.06c0,1-1.08,1.99-6.14,1.99s-6.14-1-6.14-1.99Z"
           id="path9" />
        <path
           class="h"
           d="M54.59,128.34h11.79c.83,0,1.16-.33,1.16-1.08l-1.3-3.79c-3.37-1.66-6.54-3.64-9.49-5.91l-3.32,9.7c0,.75,.33,1.08,1.16,1.08Z"
           id="path10" />
        <g
           id="g12">
          <path
             class="g"
             d="M65.84,33.45c8.86,7.63,26.13,22.49,25.43,39.15,1.12,.62,3.89-5.96,10.29-9.23,.89-.46,7.92-3.47,14-.46,3.65,1.81,5.17,4.13,5.57,6.29,2.95,.09,5.21,2.33,5.47,2.77-2.29,.47-12.83,1.11-15.9,16.17h0c-.76,3.45-1.79,8.11-3.89,12.38-.85,1.72-2.73,5.41-6.26,8.56,1.66-1.24,6.14-4.98,12.7-4.98,4.81,0,7.8,2.16,10.13,5.64,3.49-3.24,9.88-5.64,14.78-5.64,.08,0,.17,0,.25,0,6.04-9.01,9.56-19.85,9.56-31.51,0-31.31-25.38-56.69-56.69-56.69-12.52,0-24.08,4.07-33.46,10.94,1.1,.97,2.25,1.89,3.53,2.91,1.34,1.07,2.81,2.24,4.5,3.69Zm75.87,25.57s1.18,12.55-12.63,12.64c-.09-13.64,12.63-12.64,12.63-12.64Zm-2.53,25.28s-10.18,.79-10.11-10.12c11.05,.07,10.11,10.12,10.11,10.12Z"
             id="path11" />
          <path
             class="f"
             d="M64.91,83.91c-1.81,.56-16.65-6.95-26.36-19.97-.91-1.22-1.77-2.49-2.57-3.8-.9,4.01-1.39,8.18-1.39,12.46,0,3.15,.27,6.24,.76,9.25,.7,.23,1.41,.46,2.13,.68,9.13,2.75,19.03,3.99,27.44,1.38Z"
             id="path12" />
        </g>
        <path
           class="j"
           d="M155.58,139.46h-1.74c-1.91,0-3.15-1-3.15-3.57v-21.33c0-6.64-5.91-10.35-12.28-10.45-.08,0-.17,0-.25,0-4.9,0-11.29,2.41-14.78,5.64-2.32-3.49-5.31-5.64-10.13-5.64-6.56,0-11.04,3.74-12.7,4.98-1.3,1.17-2.83,2.26-4.61,3.15-1.54,.76-4,1.74-7.56,2.09-.02,0-.03,0-.05,0,.16,.56,.27,1.17,.27,1.9v29.05c0,1,1.16,1.99,6.14,1.99s6.14-1,6.14-1.99v-26.48c0-2.41,3.74-5.31,7.22-5.31,2.91,0,5.4,1.66,5.4,5.23v26.56c0,1,1.16,1.99,6.14,1.99s6.14-1,6.14-1.99v-26.56c0-.52,.3-1.14,.8-1.78,.62-.78,1.55-1.58,2.62-2.21,1.25-.73,2.69-1.25,4.05-1.25,3.15,0,5.15,1.74,5.15,5.06v19.67c0,6.14,3.57,9.88,9.71,9.88,4.07,0,8.63-5.64,8.63-7.55,0-.66-.25-1.08-1.16-1.08Z"
           id="path13" />
        <g
           id="g18">
          <path
             class="l"
             d="M9.31,67.71c-.89-1.1-7.31,6.35-8.99,16.46-1.96,12.18,5.41,24.4,15.67,27.71,0,0,13.7-9.46,27.54-8.72-4.07-6.35-6.92-13.56-8.19-21.31-12.75-4.22-23.59-11.12-26.04-14.14Z"
             id="path14" />
          <path
             class="l"
             d="M57.81,26.85c-1.87-1.65-3.58-3.43-5.45-6.09-5.92-8.39-7.39-16.47-7.94-20.75-1.78,1.88-18.54,20.2-13.83,46.3,.87,5.04,2.83,9.67,5.38,13.84,3.05-13.59,10.97-25.33,21.84-33.3Z"
             id="path15" />
          <path
             class="l"
             d="M121.13,69.2c-.41-2.16-1.93-4.48-5.57-6.29-6.08-3.01-13.1,0-14,.46-6.4,3.27-9.17,9.85-10.29,9.23,.7-16.66-16.57-31.52-25.43-39.15-1.69-1.46-3.16-2.63-4.5-3.69-1.28-1.02-2.44-1.94-3.53-2.91-10.87,7.96-18.79,19.71-21.84,33.3,.8,1.31,1.66,2.58,2.57,3.8,9.71,13.02,24.56,20.53,26.36,19.97-8.4,2.6-18.31,1.37-27.44-1.38-.72-.22-1.42-.45-2.13-.68,1.27,7.75,4.11,14.96,8.19,21.31,.08,0,.15,0,.23,0,.37,.02,.75,.05,1.12,.09,1.6,.07,3.16,.28,4.71,.55l3.68-9.75c.75-2.08,2.49-2.66,7.22-2.66s6.47,.58,7.22,2.66l7.08,18.68c.31,.09,.62,.18,.93,.26,4.05,1.08,8.3,1.71,12.5,1.33,.04,0,.08,0,.11,0,.02,0,.03,0,.05,0,3.55-.35,6.02-1.33,7.56-2.09,1.79-.89,3.31-1.98,4.61-3.15,3.52-3.15,5.41-6.84,6.26-8.56,2.1-4.27,3.13-8.93,3.89-12.38h0c3.08-15.06,13.61-15.7,15.9-16.17-.26-.44-2.52-2.68-5.47-2.77Z"
             id="path16" />
          <path
             class="l"
             d="M141.71,59.03s-12.73-.99-12.63,12.64c13.81-.09,12.63-12.64,12.63-12.64Z"
             id="path17" />
          <path
             class="l"
             d="M139.18,84.31s.94-10.04-10.11-10.12c-.07,10.91,10.11,10.12,10.11,10.12Z"
             id="path18" />
        </g>
        <path
           class="j"
           d="M86.55,143.78l-5.87-15.49-5.9-15.56-7.08-18.68c-.75-2.08-2.49-2.66-7.22-2.66s-6.47,.58-7.22,2.66l-3.68,9.75-1.9,5.04-13.18,34.93c-.33,1-.58,1.49-.58,2.16,0,.91,1.41,1.33,6.39,1.33,4.65,0,6.31-.42,6.81-1.66l2.49-6.64c.33-.83,.66-1.08,1.49-1.08h18.76c.83,0,1.16,.25,1.49,1.08l2.49,6.64c.5,1.24,2.16,1.66,6.81,1.66,4.98,0,6.47-.42,6.47-1.33,0-.66-.25-1.16-.58-2.16Zm-20.17-15.44h-11.79c-.83,0-1.16-.33-1.16-1.08l3.32-9.7,2.74-7.98c.17-.5,.42-1.16,1-1.16s.83,.66,1,1.16l4.76,13.89,1.3,3.79c0,.75-.33,1.08-1.16,1.08Z"
           id="path19" />
        <text
           class="i"
           id="text23"
           transform="translate(158.21 91.4)"><tspan
             class="m"
             x="0"
             y="0"
             id="tspan19">Comunid</tspan><tspan
             class="v"
             x="88.77"
             y="0"
             id="tspan20">a</tspan><tspan
             class="o"
             x="100.53"
             y="0"
             id="tspan21">d Cristi</tspan><tspan
             class="t"
             x="180.12"
             y="0"
             id="tspan22">a</tspan><tspan
             class="o"
             x="192.02"
             y="0"
             id="tspan23">na</tspan></text>
        <text
           class="k"
           transform="translate(46.87 174.22)"
           id="text30"><tspan
             class="r"
             x="0"
             y="0"
             id="tspan24">Dios brilla p</tspan><tspan
             class="n"
             x="189.82"
             y="0"
             id="tspan25">a</tspan><tspan
             class="u"
             x="207.02"
             y="0"
             id="tspan26">r</tspan><tspan
             class="r"
             x="220.74"
             y="0"
             id="tspan27">a t</tspan><tspan
             class="p"
             x="262.22"
             y="0"
             id="tspan28">o</tspan><tspan
             class="s"
             x="279.9"
             y="0"
             id="tspan29">d</tspan><tspan
             class="q"
             x="297.86"
             y="0"
             id="tspan30">os</tspan></text>
      </g>
    </g>
  </g>
</svg>
